<?xml version="1.0" encoding="UTF-8" standalone="no"?>
<!DOCTYPE svg PUBLIC "-//W3C//DTD SVG 1.1//EN" "http://www.w3.org/Graphics/SVG/1.1/DTD/svg11.dtd">
<!-- Created with Vectornator (http://vectornator.io/) -->
<svg height="100%" stroke-miterlimit="10" style="fill-rule:nonzero;clip-rule:evenodd;stroke-linecap:round;stroke-linejoin:round;" version="1.1" viewBox="0 0 512 512" width="100%" xml:space="preserve" xmlns="http://www.w3.org/2000/svg" xmlns:vectornator="http://vectornator.io" xmlns:xlink="http://www.w3.org/1999/xlink">
<defs>
<filter color-interpolation-filters="sRGB" filterUnits="userSpaceOnUse" height="112.682" id="Filter" width="115.367" x="197.496" y="203.339">
<feDropShadow dx="-0" dy="0" flood-color="#000000" flood-opacity="0.333" in="SourceGraphic" result="Shadow" stdDeviation="5"/>
</filter>
<filter color-interpolation-filters="sRGB" filterUnits="userSpaceOnUse" height="65.1788" id="Filter_2" width="117.376" x="174.826" y="207.849">
<feDropShadow dx="-0" dy="0" flood-color="#000000" flood-opacity="0.333" in="SourceGraphic" result="Shadow" stdDeviation="5"/>
</filter>
</defs>
<g id="Layer-1" vectornator:layerName="Layer 1">
<g fill="#00bfff" filter="url(#Filter)" stroke="#282828" stroke-linecap="butt" stroke-linejoin="round" stroke-width="0.658978" vectornator:layerName="Text 1" vectornator:shadowAngle="1.5708" vectornator:shadowColor="#000000" vectornator:shadowOffset="0" vectornator:shadowOpacity="0.333" vectornator:shadowRadius="10">
<path d="M210.325 269.814L223.689 269.814L223.689 283.753L210.325 283.753L210.325 269.814Z"/>
<path d="M246.387 297.117C249.329 296.605 251.396 294.538 252.59 290.914C253.229 288.996 253.549 287.142 253.549 285.352C253.549 285.053 253.538 284.787 253.517 284.552C253.495 284.318 253.442 284.052 253.357 283.753L246.387 283.753L246.387 269.814L260.071 269.814L260.071 282.73C260.071 287.803 259.048 292.257 257.002 296.094C254.955 299.93 251.417 302.296 246.387 303.191L246.387 297.117Z"/>
<path d="M286.414 297.117C289.398 296.563 291.465 294.58 292.616 291.17C293.213 289.38 293.512 287.419 293.512 285.288C293.512 285.075 293.501 284.893 293.48 284.744C293.458 284.595 293.426 284.265 293.384 283.753L286.414 283.753L286.414 269.814L300.033 269.814L300.033 282.73C300.033 287.291 299.373 291.106 298.051 294.175C295.835 299.205 291.956 302.211 286.414 303.191L286.414 297.117ZM286.414 216.168L300.033 216.168L300.033 230.107L286.414 230.107L286.414 216.168Z"/>
</g>
<g fill="#14b7ff" filter="url(#Filter_2)" stroke="#282828" stroke-linecap="butt" stroke-linejoin="round" stroke-width="0.658978" vectornator:layerName="Text 2" vectornator:shadowAngle="1.5708" vectornator:shadowColor="#000000" vectornator:shadowOffset="0" vectornator:shadowOpacity="0.333" vectornator:shadowRadius="10">
<path d="M191.474 241.806C191.569 243.507 191.971 244.888 192.678 245.95C194.026 247.937 196.4 248.93 199.803 248.93C201.327 248.93 202.715 248.712 203.967 248.277C206.389 247.433 207.6 245.922 207.6 243.745C207.6 242.112 207.09 240.948 206.069 240.254C205.035 239.574 203.416 238.982 201.211 238.479L197.149 237.56C194.495 236.961 192.617 236.301 191.515 235.58C189.61 234.328 188.657 232.457 188.657 229.966C188.657 227.272 189.589 225.06 191.454 223.332C193.318 221.604 195.958 220.739 199.374 220.739C202.518 220.739 205.188 221.498 207.386 223.016C209.584 224.533 210.683 226.959 210.683 230.293L206.866 230.293C206.661 228.687 206.226 227.455 205.559 226.598C204.321 225.033 202.218 224.251 199.251 224.251C196.856 224.251 195.135 224.754 194.087 225.761C193.039 226.768 192.515 227.939 192.515 229.272C192.515 230.742 193.128 231.817 194.352 232.497C195.155 232.933 196.972 233.477 199.803 234.131L204.008 235.09C206.035 235.553 207.6 236.185 208.703 236.988C210.608 238.39 211.561 240.425 211.561 243.092C211.561 246.412 210.353 248.787 207.937 250.216C205.522 251.645 202.715 252.359 199.517 252.359C195.788 252.359 192.869 251.407 190.76 249.502C188.65 247.61 187.616 245.045 187.657 241.806L191.474 241.806Z"/>
<path d="M225.442 249.012C227.156 249.012 228.582 248.294 229.718 246.858C230.854 245.422 231.423 243.276 231.423 240.418C231.423 238.676 231.171 237.179 230.667 235.927C229.715 233.518 227.973 232.314 225.442 232.314C222.897 232.314 221.155 233.586 220.216 236.131C219.712 237.492 219.46 239.22 219.46 241.316C219.46 243.003 219.712 244.439 220.216 245.623C221.168 247.882 222.91 249.012 225.442 249.012ZM215.929 229.721L219.501 229.721L219.501 232.62C220.236 231.626 221.039 230.858 221.91 230.313C223.148 229.497 224.605 229.088 226.278 229.088C228.755 229.088 230.858 230.038 232.586 231.936C234.314 233.835 235.179 236.546 235.179 240.071C235.179 244.834 233.933 248.236 231.443 250.277C229.864 251.57 228.027 252.217 225.931 252.217C224.285 252.217 222.903 251.856 221.788 251.135C221.134 250.726 220.406 250.026 219.603 249.032L219.603 260.198L215.929 260.198L215.929 229.721Z"/>
<path d="M242.282 245.664C242.282 246.725 242.67 247.562 243.446 248.175C244.222 248.787 245.14 249.093 246.202 249.093C247.495 249.093 248.747 248.794 249.958 248.195C251.999 247.202 253.02 245.575 253.02 243.316L253.02 240.357C252.571 240.642 251.992 240.88 251.285 241.071C250.577 241.261 249.883 241.398 249.202 241.479L246.977 241.765C245.644 241.942 244.643 242.221 243.977 242.602C242.847 243.242 242.282 244.262 242.282 245.664ZM251.182 238.234C252.026 238.125 252.591 237.771 252.877 237.172C253.04 236.845 253.122 236.376 253.122 235.764C253.122 234.512 252.676 233.603 251.785 233.038C250.893 232.474 249.617 232.191 247.957 232.191C246.038 232.191 244.678 232.708 243.875 233.743C243.425 234.314 243.133 235.165 242.997 236.294L239.567 236.294C239.635 233.6 240.51 231.725 242.191 230.67C243.871 229.616 245.821 229.088 248.039 229.088C250.611 229.088 252.7 229.578 254.306 230.558C255.898 231.538 256.694 233.062 256.694 235.131L256.694 247.726C256.694 248.107 256.772 248.413 256.929 248.644C257.085 248.876 257.415 248.991 257.919 248.991C258.082 248.991 258.266 248.981 258.47 248.961C258.674 248.94 258.892 248.91 259.123 248.869L259.123 251.584C258.552 251.747 258.116 251.849 257.817 251.89C257.517 251.931 257.109 251.951 256.592 251.951C255.326 251.951 254.408 251.502 253.836 250.604C253.537 250.128 253.326 249.454 253.203 248.583C252.455 249.563 251.38 250.413 249.978 251.135C248.576 251.856 247.032 252.217 245.344 252.217C243.317 252.217 241.66 251.601 240.374 250.369C239.088 249.138 238.445 247.596 238.445 245.746C238.445 243.718 239.077 242.146 240.343 241.03C241.609 239.914 243.269 239.227 245.324 238.968L251.182 238.234Z"/>
<path d="M261.083 248.583L274.045 232.906L262.042 232.906L262.042 229.619L278.985 229.619L278.985 232.62L266.104 248.195L279.373 248.195L279.373 251.482L261.083 251.482L261.083 248.583Z"/>
</g>
</g>
</svg>
